<svg id="Capa_1" enable-background="new 0 0 512 512" height="512" viewBox="0 0 512 512" width="512" xmlns="http://www.w3.org/2000/svg"><g><path d="m142.402 155.34h63.42v-81.588h-93.237c-3.568 0-5.987 3.629-4.616 6.922l29.818 71.588c.776 1.864 2.597 3.078 4.615 3.078z" fill="#eec06b"/><path d="m17.495 377.713h179.497c5.52 0 9.995-4.475 9.995-9.995v-119.686c0-5.52-4.475-9.995-9.995-9.995h-179.497c-5.52 0-9.995 4.475-9.995 9.995v119.687c0 5.52 4.475 9.994 9.995 9.994z" fill="#e3e0e4"/><path d="m196.992 385.213h-179.497c-9.646 0-17.495-7.848-17.495-17.494v-119.687c0-9.646 7.849-17.495 17.495-17.495h179.497c9.646 0 17.494 7.848 17.494 17.495v119.687c0 9.646-7.847 17.494-17.494 17.494zm-179.497-139.676c-1.376 0-2.495 1.119-2.495 2.495v119.687c0 1.375 1.119 2.495 2.495 2.495h179.497c1.375 0 2.494-1.119 2.494-2.495v-119.687c0-1.375-1.119-2.495-2.494-2.495z" fill="#eec06b"/><g fill="#655e67"><g><path d="m163.051 354.482c-4.143 0-7.5-3.358-7.5-7.5v-78.214c0-4.142 3.357-7.5 7.5-7.5s7.5 3.358 7.5 7.5v78.214c0 4.143-3.358 7.5-7.5 7.5z"/><path d="m135.147 354.482c-4.143 0-7.5-3.358-7.5-7.5v-78.214c0-4.142 3.357-7.5 7.5-7.5s7.5 3.358 7.5 7.5v78.214c0 4.143-3.357 7.5-7.5 7.5z"/><path d="m107.243 354.482c-4.143 0-7.5-3.358-7.5-7.5v-78.214c0-4.142 3.357-7.5 7.5-7.5s7.5 3.358 7.5 7.5v78.214c0 4.143-3.357 7.5-7.5 7.5z"/><path d="m51.436 354.482c-4.143 0-7.5-3.358-7.5-7.5v-78.214c0-4.142 3.357-7.5 7.5-7.5s7.5 3.358 7.5 7.5v78.214c0 4.143-3.358 7.5-7.5 7.5z"/></g><path d="m419.038 462.187h-19.383c-25.398 0-46.062-20.663-46.062-46.062v-33.047c0-4.142 3.357-7.5 7.5-7.5s7.5 3.358 7.5 7.5v33.047c0 17.127 13.935 31.062 31.062 31.062h19.383c12.938 0 23.465-10.526 23.465-23.464v-39.584c0-21.209 17.255-38.464 38.464-38.464h23.533c4.143 0 7.5 3.358 7.5 7.5s-3.357 7.5-7.5 7.5h-23.533c-12.938 0-23.464 10.526-23.464 23.464v39.584c0 21.209-17.255 38.464-38.465 38.464z"/><path d="m252.001 152.588c17.761-9.486 39.766-9.774 57.962-1.152s32.061 25.583 37.649 44.927c5.588 19.345.806 41.503-8.49 59.364-12.218 1.413-24.75 2.809-36.686-.157s-23.34-11.268-26.397-23.181c-1.587-6.186-.825-12.69-.745-19.075.275-22.205-8.239-44.401-23.293-60.726z"/></g><path d="m333.384 343.754-26.675-211.72 72.754-8.742 30.987 247.622c2.019 16.805-9.078 32.386-25.619 35.973l-61.616 13.361c-14.306 3.102-27.821-7.797-27.821-22.435v-9.195c0-10.803 7.532-20.144 18.089-22.434l4.647-1.008c9.849-2.138 16.456-11.416 15.254-21.422z" fill="#80b6fc"/><path d="m196.458 179.279h179.729c35.751 0 64.733-28.982 64.733-64.733s-28.982-64.733-64.733-64.733h-227.062c-10.285 0-17.261 10.463-13.306 19.957l39.834 95.637c3.499 8.4 11.706 13.872 20.805 13.872z" fill="#80b6fc"/><path d="m376.188 149.959h-179.73c-9.099 0-17.306-5.472-20.805-13.872l-34.84-83.645c-5.223 3.705-7.736 10.747-4.995 17.328l39.834 95.637c3.499 8.4 11.706 13.872 20.805 13.872h179.729c35.751 0 64.733-28.982 64.733-64.733 0-5.045-.596-9.947-1.688-14.66-6.643 28.686-32.337 50.073-63.043 50.073z" fill="#5392f9"/></g></svg>