<?xml version="1.0" encoding="iso-8859-1"?>
<!-- Generator: Adobe Illustrator 19.1.0, SVG Export Plug-In . SVG Version: 6.00 Build 0)  -->
<svg version="1.1" id="Capa_1" xmlns="http://www.w3.org/2000/svg" xmlns:xlink="http://www.w3.org/1999/xlink" x="0px" y="0px"
	 viewBox="0 0 489 489" style="enable-background:new 0 0 489 489;" xml:space="preserve">
<g>
	<g>
		<path d="M244.4,232.968c-46.8,0-84.8,38-84.8,84.8s38,84.8,84.8,84.8s84.8-38,84.8-84.8
			C329.2,271.068,291.2,232.968,244.4,232.968z M244.4,385.068c-37.1,0-67.2-30.2-67.2-67.2c0-37.1,30.2-67.2,67.2-67.2
			s67.2,30.2,67.2,67.2S281.5,385.068,244.4,385.068z"/>
		<path d="M258.9,313.068c-4.1-2.3-8.4-4-12.7-5.8c-2.5-1-4.9-2.2-7-3.9c-4.1-3.3-3.4-8.7,1.5-10.8c1.4-0.6,2.8-0.8,4.3-0.9
			c5.6-0.3,11,0.7,16.1,3.2c2.5,1.2,3.4,0.8,4.2-1.8c0.9-2.8,1.7-5.6,2.5-8.4c0.6-1.9-0.1-3.1-1.9-3.9c-3.3-1.4-6.6-2.5-10.1-3
			c-4.6-0.7-4.6-0.7-4.6-5.4c0-6.5,0-6.5-6.6-6.5c-0.9,0-1.9,0-2.8,0c-3.1,0.1-3.6,0.6-3.7,3.7c0,1.4,0,2.8,0,4.1c0,4.1,0,4-3.9,5.4
			c-9.5,3.4-15.3,9.9-15.9,20.2c-0.6,9.1,4.2,15.3,11.7,19.8c4.6,2.8,9.7,4.4,14.6,6.6c1.9,0.8,3.7,1.8,5.3,3.1
			c4.7,3.9,3.8,10.4-1.7,12.8c-3,1.3-6.2,1.6-9.4,1.2c-5-0.6-9.8-1.9-14.3-4.3c-2.6-1.4-3.4-1-4.3,1.9c-0.8,2.5-1.5,5-2.1,7.5
			c-0.9,3.4-0.6,4.2,2.6,5.7c4.1,2,8.4,3,12.9,3.7c3.5,0.6,3.6,0.7,3.6,4.3c0,1.6,0,3.3,0,4.9c0,2.1,1,3.3,3.1,3.3
			c2.4,0,4.8,0,7.3,0c2-0.1,3-1.1,3-3.1c0-2.2,0.1-4.5,0-6.7c-0.1-2.3,0.9-3.4,3.1-4c5-1.4,9.4-4.1,12.7-8.1
			C275.4,336.668,271.9,320.268,258.9,313.068z"/>
		<path d="M244.5,190.968h73.7c-0.4-30.7,0.8-47.1-19.1-54.3c-18.1-6.9-28.9-14-28.9-14l-13.9,44l-1.9,6l-6.2-17.7
			c14.3-20-1.1-20.9-3.8-21l0,0l0,0l0,0l0,0l0,0l0,0c-2.7,0-18.1,1-3.8,21l-6.2,17.7l-1.9-6l-13.9-44c0,0-10.8,7.1-28.9,14
			c-19.9,7.2-18.7,23.6-19.1,54.3h73.7H244.5z"/>
		<path d="M213.1,94.768c1.6,10.3,9.6,23.5,22.7,28.1c5.4,1.9,11.3,1.9,16.6,0c12.9-4.7,21.1-17.8,22.7-28.1c1.7-0.1,4-2.6,6.5-11.3
			c3.4-11.9-0.2-13.7-3.2-13.4c0.6-1.6,1-3.3,1.3-4.9c5.1-30.8-10-31.9-10-31.9s-2.5-4.8-9.1-8.5c-4.4-2.6-10.6-4.7-18.8-4
			c-2.6,0.1-5.1,0.6-7.5,1.4l0,0c-3,1-5.7,2.5-8.2,4.2c-3,1.9-5.9,4.3-8.5,7c-4,4.1-7.6,9.4-9.1,16c-1.3,4.9-1,10.1,0.1,15.7l0,0
			c0.3,1.6,0.7,3.3,1.3,4.9c-3-0.3-6.6,1.5-3.2,13.4C209.1,92.168,211.4,94.568,213.1,94.768z"/>
		<path d="M469.9,414.068c-18.1-6.9-28.9-14-28.9-14l-13.9,44l-1.9,6l-6.2-17.7c14.3-20-1.1-20.9-3.8-21l0,0l0,0l0,0l0,0l0,0l0,0
			c-2.7,0-18.1,1-3.8,21l-6.2,17.7l-1.9-6l-13.9-44c0,0-10.8,7.1-28.9,14c-19.9,7.2-18.7,23.6-19.1,54.3h73.7h0.2H489
			C488.5,437.668,489.8,421.368,469.9,414.068z"/>
		<path d="M383.8,372.168c1.6,10.3,9.6,23.5,22.7,28.1c5.4,1.9,11.3,1.9,16.6,0c12.9-4.7,21.1-17.8,22.7-28.1
			c1.7-0.1,4-2.6,6.5-11.3c3.4-11.9-0.2-13.7-3.2-13.4c0.6-1.6,1-3.3,1.3-4.9c5.1-30.8-10-31.9-10-31.9s-2.5-4.8-9.1-8.5
			c-4.4-2.6-10.6-4.7-18.8-4c-2.6,0.1-5.1,0.6-7.5,1.4l0,0c-3,1-5.7,2.5-8.2,4.2c-3,1.9-5.9,4.3-8.5,7c-4,4.1-7.6,9.4-9.1,16
			c-1.3,4.9-1,10.1,0.1,15.7l0,0c0.3,1.6,0.7,3.3,1.3,4.9c-3-0.3-6.6,1.5-3.2,13.4C379.8,369.668,382.1,372.068,383.8,372.168z"/>
		<path d="M128.5,414.068c-18.1-6.9-28.9-14-28.9-14l-13.9,44l-1.9,6l-6.2-17.7c14.3-20-1.1-20.9-3.8-21l0,0l0,0l0,0l0,0l0,0l0,0
			c-2.7,0-18.1,1-3.8,21l-6.2,17.7l-1.9-6l-13.9-44c0,0-10.8,7.1-28.9,14c-19.9,7.2-18.7,23.6-19.1,54.3h73.7h0.2h73.7
			C147.1,437.668,148.4,421.368,128.5,414.068z"/>
		<path d="M42.4,372.168c1.6,10.3,9.6,23.5,22.7,28.1c5.4,1.9,11.3,1.9,16.6,0c12.9-4.7,21.1-17.8,22.7-28.1c1.7-0.1,4-2.6,6.5-11.3
			c3.4-11.9-0.2-13.7-3.2-13.4c0.6-1.6,1-3.3,1.3-4.9c5.1-30.8-10-31.9-10-31.9s-2.5-4.8-9.1-8.5c-4.4-2.6-10.6-4.7-18.8-4
			c-2.6,0.1-5.1,0.6-7.5,1.4l0,0c-3,1-5.7,2.5-8.2,4.2c-3,1.9-5.9,4.3-8.5,7c-4,4.1-7.6,9.4-9.1,16c-1.3,4.9-1,10.1,0.1,15.7l0,0
			c0.3,1.6,0.7,3.3,1.3,4.9c-3-0.3-6.6,1.5-3.2,13.4C38.4,369.668,40.7,372.068,42.4,372.168z"/>
	</g>
</g>
<g>
</g>
<g>
</g>
<g>
</g>
<g>
</g>
<g>
</g>
<g>
</g>
<g>
</g>
<g>
</g>
<g>
</g>
<g>
</g>
<g>
</g>
<g>
</g>
<g>
</g>
<g>
</g>
<g>
</g>
</svg>
